<svg width="16" height="16" viewBox="0 0 16 16" fill="none" xmlns="http://www.w3.org/2000/svg">
  <path d="M15.8263 13.5838L9.15378 1.99036C8.65335 1.1285 7.34665 1.1007 6.84622 1.99036L0.173729 13.5838C-0.326708 14.4457 0.312739 15.5578 1.34141 15.5578H14.6586C15.6873 15.5578 16.3267 14.4735 15.8263 13.5838ZM8.0139 11.165C8.70895 11.165 9.29279 11.7489 9.29279 12.4439C9.29279 13.1668 8.70895 13.7228 8.0139 13.7228C7.29105 13.7228 6.73501 13.1668 6.73501 12.4439C6.73501 11.7489 7.29105 11.165 8.0139 11.165ZM6.79061 6.5777C6.76281 6.38308 6.92962 6.21627 7.12424 6.21627H8.87576C9.07038 6.21627 9.23719 6.38308 9.20939 6.5777L9.01477 10.3588C8.98697 10.5534 8.84796 10.6646 8.68115 10.6646H7.31885C7.15204 10.6646 7.01303 10.5534 6.98523 10.3588L6.79061 6.5777Z" fill="#FF4646"/>
</svg>