<svg xmlns="http://www.w3.org/2000/svg" fill="none" viewBox="0 0 15 15"><path fill="#fff" d="M2.64663 1.76442c.23397 0 .45837-.09295.62381-.2584.16545-.16544.2584-.38983.2584-.623811 0-.233976-.09295-.45837-.2584-.623816C3.105.0929469 2.8806 0 2.64663 0H.882209C.648233 0 .423839.0929469.258393.258393.0929469.423839 0 .648233 0 .882209V13.2331c0 .234.0929469.4584.258393.6239.165446.1654.38984.2583.623816.2583H2.64663c.23397 0 .45837-.0929.62381-.2583.16545-.1655.2584-.3899.2584-.6239 0-.2339-.09295-.4583-.2584-.6238-.16544-.1654-.38984-.2584-.62381-.2584h-.88221V1.76442h.88221ZM14.8388 6.54588 12.351 3.01704c-.1349-.19019-.3396-.31923-.5694-.35891-.2298-.03968-.466.01324-.6569.14718-.0954.06686-.1766.15196-.2389.25038-.0624.09842-.1046.20821-.1243.32304-.0197.11483-.0164.23243.0096.34599.026.11357.0742.22086.1419.31568l1.5174 2.13495H5.29334c-.23397 0-.45837.09295-.62381.25839-.16545.16545-.2584.38984-.2584.62382 0 .23397.09295.45837.2584.62381.16544.16545.38984.2584.62381.2584H12.351l-1.588 2.11733c-.0695.0927-.1201.1981-.1488.3103-.0288.1123-.0351.2291-.0187.3438.0163.1146.0552.225.1142.3247.059.0997.1371.1867.2298.2563.1527.1145.3384.1764.5293.1764.137 0 .272-.0319.3945-.0931.1225-.0613.2291-.1502.3113-.2598l2.6466-3.52882c.113-.14921.1756-.33049.1788-.51762.0031-.18714-.0533-.37043-.1612-.52338Z"/></svg>